<svg width="98" height="115" viewBox="0 0 98 115" fill="none" xmlns="http://www.w3.org/2000/svg">
<rect x="7" width="72" height="4" fill="#272727"/>
<rect x="7" width="6" height="106" fill="#272727"/>
<rect x="30.0846" width="3" height="35" transform="rotate(35.0188 30.0846 0)" fill="#272727"/>
<rect y="104" width="98" height="11" fill="#272727"/>
<rect x="10" y="77" width="88" height="4" fill="#272727"/>
<rect x="94" y="77" width="4" height="29" fill="#272727"/>
<rect x="71" y="4" width="2" height="32" fill="#272727"/>
<circle cx="72" cy="24" r="5" fill="black"/>
<rect x="67" y="30" width="10" height="26" rx="3" fill="black"/>
<rect x="67" y="51" width="3" height="26" rx="1.5" fill="black"/>
<rect x="74" y="51" width="3" height="26" rx="1.5" fill="black"/>
<rect x="74" y="31.031" width="2" height="14.6455" rx="1" transform="rotate(-31.0301 74 31.031)" fill="black"/>
<rect x="68.4019" y="45.9733" width="2" height="15" rx="1" transform="rotate(-101.592 68.4019 45.9733)" fill="black"/>
<rect width="1.99967" height="14.6446" rx="0.999837" transform="matrix(-0.856846 -0.515572 -0.515405 0.856947 70.0013 31.031)" fill="black"/>
<rect width="1.99998" height="14.9968" rx="0.999991" transform="matrix(0.200898 -0.979612 -0.979595 -0.200983 75.5982 45.9733)" fill="black"/>
<rect x="70" y="29" width="4" height="1" rx="0.5" fill="#272727"/>
</svg>
